<?xml version="1.0" encoding="utf-8"?>
<svg xmlns="http://www.w3.org/2000/svg" xmlns:xlink="http://www.w3.org/1999/xlink">
	<symbol viewBox="0 0 141.73 142.69" id="Tikkurila-logo"><title>Tikkurila-logo</title><g clip-path="url(#clip-path)"><path fill="#ef4135" d="M.03.99h141.7v141.7H.03z"/></g><g clip-path="url(#clip-path)"><text transform="translate(0 6.4)" style="isolation:isolate" font-size="7.457" font-family="Arial"/></g><g clip-path="url(#clip-path)"><path d="M103.33 124.89a1.45 1.45 0 0 1-1.7-1.7v-12.6a2.17 2.17 0 0 1 .2-1.2 1.43 1.43 0 0 1 1.3-.7 1.39 1.39 0 0 1 1.2.7 2.17 2.17 0 0 1 .2 1.2v11.6h5.1a1.82 1.82 0 0 1 1.1.2 1.25 1.25 0 0 1 .6 1.1 1.15 1.15 0 0 1-.6 1.1 1.82 1.82 0 0 1-1.1.2h-6.3v.1zm-81.8.1a1.39 1.39 0 0 1-1.2-.7 2.17 2.17 0 0 1-.2-1.2v-11.6h-2.6a1.82 1.82 0 0 1-1.1-.2 1.25 1.25 0 0 1-.6-1.1 1.15 1.15 0 0 1 .6-1.1 1.82 1.82 0 0 1 1.1-.2h8.2a1.82 1.82 0 0 1 1.1.2 1.25 1.25 0 0 1 .6 1.1 1.15 1.15 0 0 1-.6 1.1 1.82 1.82 0 0 1-1.1.2h-2.6v11.6a2.17 2.17 0 0 1-.2 1.2 1.91 1.91 0 0 1-1.4.7m9.6 0a1.71 1.71 0 0 1-1.3-.7 2.17 2.17 0 0 1-.2-1.2v-12.5a2.17 2.17 0 0 1 .2-1.2 1.43 1.43 0 0 1 1.3-.7 1.39 1.39 0 0 1 1.2.7 2.17 2.17 0 0 1 .2 1.2v12.5a2.17 2.17 0 0 1-.2 1.2 1.27 1.27 0 0 1-1.2.7m15.6 0a1.64 1.64 0 0 1-1.4-1.1l-3.7-6.5-2.3 2.8v2.9a2.17 2.17 0 0 1-.2 1.2 1.43 1.43 0 0 1-1.3.7 1.39 1.39 0 0 1-1.2-.7 2.17 2.17 0 0 1-.2-1.2v-12.5a2.17 2.17 0 0 1 .2-1.2 1.43 1.43 0 0 1 1.3-.7 1.71 1.71 0 0 1 1.3.7 2.17 2.17 0 0 1 .2 1.2v5.4l5.4-6.5a1.56 1.56 0 0 1 1.3-.8 1.35 1.35 0 0 1 1.4 1.4 1.93 1.93 0 0 1-.6 1.2l-3.2 3.8 4.1 7.3a1.86 1.86 0 0 1 .4 1.1 1.31 1.31 0 0 1-.7 1.2 1.6 1.6 0 0 1-.8.3m14.4 0a1.64 1.64 0 0 1-1.4-1.1l-3.7-6.5-2.3 2.8v2.9a2.17 2.17 0 0 1-.2 1.2 1.43 1.43 0 0 1-1.3.7 1.71 1.71 0 0 1-1.3-.7 2.17 2.17 0 0 1-.2-1.2v-12.5a2.17 2.17 0 0 1 .2-1.2 1.43 1.43 0 0 1 1.3-.7 1.39 1.39 0 0 1 1.2.7 2.17 2.17 0 0 1 .2 1.2v5.4l5.4-6.5a1.56 1.56 0 0 1 1.3-.8 1.35 1.35 0 0 1 1.4 1.4 1.93 1.93 0 0 1-.6 1.2l-3.2 3.8 4.2 7.3a1.86 1.86 0 0 1 .4 1.1 1.31 1.31 0 0 1-.7 1.2 1.08 1.08 0 0 1-.7.3m25.2-9.2c1.5 0 2.4-.8 2.4-2.1a2.16 2.16 0 0 0-2.4-2.2h-3.2v4.3h3.2zm3.9 9.2a1.64 1.64 0 0 1-1.4-1.1l-3.2-5.5h-2.5v4.7a2.17 2.17 0 0 1-.2 1.2 1.43 1.43 0 0 1-1.3.7 1.39 1.39 0 0 1-1.2-.7 2.17 2.17 0 0 1-.2-1.2v-12.6a1.45 1.45 0 0 1 1.7-1.7h4.6c3 0 5.1 1.9 5.1 4.8a4.46 4.46 0 0 1-2.9 4.3l2.6 4.5a1.86 1.86 0 0 1 .4 1.1 1.31 1.31 0 0 1-.7 1.2 1.6 1.6 0 0 1-.8.3m6.1 0a1.71 1.71 0 0 1-1.3-.7 2.17 2.17 0 0 1-.2-1.2v-12.5a2.17 2.17 0 0 1 .2-1.2 1.43 1.43 0 0 1 1.3-.7 1.39 1.39 0 0 1 1.2.7 2.17 2.17 0 0 1 .2 1.2v12.5a2.17 2.17 0 0 1-.2 1.2 1.39 1.39 0 0 1-1.2.7m25.2-5.8l-2.1-5.7-2.1 5.7h4.2zm3 5.8a1.14 1.14 0 0 1-.8-.3 1.9 1.9 0 0 1-.6-1l-.7-1.9h-6l-.7 1.9a1.9 1.9 0 0 1-.6 1 1.14 1.14 0 0 1-.8.3 2.1 2.1 0 0 1-1.1-.4 1.51 1.51 0 0 1-.1-1.8l4.7-12.6a2.37 2.37 0 0 1 .5-.9 1.37 1.37 0 0 1 1.1-.4 1.5 1.5 0 0 1 1.1.4 1.93 1.93 0 0 1 .5.9l4.8 12.6a1.67 1.67 0 0 1-.1 1.9 5.27 5.27 0 0 1-1.2.3m-53.7 0a5.52 5.52 0 0 1-5.8-5.6v-8.8a2.17 2.17 0 0 1 .2-1.2 1.43 1.43 0 0 1 1.3-.7 1.39 1.39 0 0 1 1.2.7 2.17 2.17 0 0 1 .2 1.2v8.7a2.91 2.91 0 1 0 5.8 0v-8.7a2.17 2.17 0 0 1 .2-1.2 1.43 1.43 0 0 1 1.3-.7 1.39 1.39 0 0 1 1.2.7 2.17 2.17 0 0 1 .2 1.2v8.8a5.52 5.52 0 0 1-5.8 5.6" fill="#fff"/></g><g clip-path="url(#clip-path)"><path d="M99.53 84.39l-1.4 7.1a3.4 3.4 0 0 1-3.1 2.6h-48.3a3.31 3.31 0 0 1-3.1-2.6l-1.6-8.2m0 0l-7.6-39a6.1 6.1 0 0 1 8.4 5.1 6.7 6.7 0 0 1-.5 3.7 7.54 7.54 0 0 1 1.5 15 5.38 5.38 0 0 1-3.3-.5 4.87 4.87 0 0 0 .1 1.2c1 7.8 6.1 11.2 14 11.2 6.9 0 14.2-4.4 14.2-12.3a8.6 8.6 0 0 0-.1-1.6 7.14 7.14 0 0 1-4.3 1.4 7.5 7.5 0 0 1-.3-15 7.4 7.4 0 0 1-.9-3.6 7.5 7.5 0 0 1 15 0 7.4 7.4 0 0 1-.9 3.6 7.5 7.5 0 0 1-.3 15 7.14 7.14 0 0 1-4.3-1.4 8.6 8.6 0 0 0-.1 1.6c0 7.9 7 12.3 14.3 12.3 7.9 0 13-3.4 14-11.3 0-.4.1-.8.1-1.2a5.86 5.86 0 0 1-3.2.5 7.54 7.54 0 0 1 1.5-15 9 9 0 0 1-.5-3.7c.5-4.1 4.3-6.4 8.4-5.1l-7.9 40.2" fill="#fff"/></g></symbol>
	<symbol viewBox="0 0 245.27 177.41" id="Tikkurila-stamp"><title>Tikkurila-stamp</title><path fill="#ed1c24" d="M24.57 77.76H0l15 20.68-15 21.23h34.27l-9.7-8.81v-33.1zM220.69 77.76h24.58l-15 20.68 15 21.23h-34.28l9.7-8.81v-33.1z"/><path d="M211.82 83.87a18.87 18.87 0 0 0-1.47-2.19c-.56-.69-1.16-1.35-1.75-2l-1.72-1.92a23.08 23.08 0 0 1-1.66-1.94 11.74 11.74 0 0 1-2.22-4.55l-.18-.89c-.93-3.81.33-6.94 1.39-10.22s2-6.67.27-10.34a10 10 0 0 0-1.48-2.4 12.79 12.79 0 0 0-2-1.77 21.73 21.73 0 0 0-4.73-2.37c-1.6-.67-3.27-1.21-4.75-2a11.65 11.65 0 0 1-3.93-3.15l-.59-.72c-2.5-3-2.73-6.39-3.17-9.82s-1.07-6.88-4.23-9.44a11.18 11.18 0 0 0-2.45-1.48 12 12 0 0 0-2.61-.71 17 17 0 0 0-2.63-.22c-.89 0-1.78.06-2.65.12l-2.59.18a23.06 23.06 0 0 1-2.55.08 11.71 11.71 0 0 1-4.91-1.1l-.81-.41c-3.57-1.64-5.23-4.58-7.13-7.45a21.46 21.46 0 0 0-3.18-4 9.84 9.84 0 0 0-4.74-2.6c-4-.94-7.28.71-10.3 2.43a46.84 46.84 0 0 1-4.52 2.46 11.08 11.08 0 0 1-4.92 1.11h-.9a10.91 10.91 0 0 1-2.75-.33 11.94 11.94 0 0 1-2.44-.82 45.07 45.07 0 0 1-4.47-2.51c-2.93-1.79-6-3.43-10-2.59a10.87 10.87 0 0 0-4.87 2.58 24.22 24.22 0 0 0-3.37 4.08c-2 2.93-3.69 5.8-6.94 7.33l-.82.39c-3.54 1.7-6.84 1.24-10.29.91s-6.93-.46-10.14 2a11 11 0 0 0-3.26 4.43 25.89 25.89 0 0 0-1.27 5.13 40.39 40.39 0 0 1-.9 5.07A11.08 11.08 0 0 1 59 36.7l-.56.71a12.18 12.18 0 0 1-2 1.94 12 12 0 0 1-2.16 1.39 44.51 44.51 0 0 1-4.74 1.93c-3.22 1.18-6.45 2.59-8.27 6.23a10.85 10.85 0 0 0-1 5.42 23.74 23.74 0 0 0 1.1 5.17c1.05 3.38 2.23 6.5 1.41 10l-.21.88a14.69 14.69 0 0 1-.92 2.65 12.15 12.15 0 0 1-1.37 2.19 33.66 33.66 0 0 1-3.44 3.8 25.72 25.72 0 0 0-3.25 4 10.2 10.2 0 0 0 0 10.52 18.87 18.87 0 0 0 1.47 2.19c.56.69 1.16 1.35 1.75 2l1.75 1.92a23.08 23.08 0 0 1 1.66 1.94 11.74 11.74 0 0 1 2.17 4.55l.18.89c.93 3.81-.33 6.94-1.39 10.22s-2 6.67-.27 10.34a10 10 0 0 0 1.57 2.4 12.79 12.79 0 0 0 2 1.77 21.73 21.73 0 0 0 4.73 2.37c1.6.67 3.27 1.21 4.75 2a11.65 11.65 0 0 1 3.92 3.17l.55.72c2.5 3 2.73 6.39 3.17 9.82s1.07 6.88 4.23 9.44a11.17 11.17 0 0 0 2.45 1.48 12 12 0 0 0 2.61.71 17 17 0 0 0 2.63.22c.89 0 1.78-.06 2.65-.12l2.59-.18a23.06 23.06 0 0 1 2.55-.08 11.71 11.71 0 0 1 4.91 1.13l.78.37c3.57 1.64 5.23 4.58 7.13 7.45a21.46 21.46 0 0 0 3.18 4 9.84 9.84 0 0 0 4.74 2.6c4 .94 7.28-.71 10.3-2.43a46.79 46.79 0 0 1 4.5-2.42 11.07 11.07 0 0 1 4.92-1.11h.9a10.9 10.9 0 0 1 2.75.33 11.94 11.94 0 0 1 2.44.82 45.05 45.05 0 0 1 4.47 2.51c2.93 1.79 6 3.43 10 2.59a10.87 10.87 0 0 0 4.87-2.58 24.22 24.22 0 0 0 3.37-4.08c2-2.93 3.69-5.8 6.94-7.33l.82-.39c3.54-1.7 6.84-1.24 10.29-.91s6.93.46 10.14-2a11 11 0 0 0 3.26-4.43 25.89 25.89 0 0 0 1.27-5.13 40.39 40.39 0 0 1 .9-5.07 11.09 11.09 0 0 1 2.19-4.55l.62-.65a12.18 12.18 0 0 1 2-1.94 12 12 0 0 1 2.16-1.39 44.51 44.51 0 0 1 4.74-1.93c3.22-1.18 6.45-2.59 8.27-6.23a10.85 10.85 0 0 0 1-5.42 23.74 23.74 0 0 0-1.1-5.17c-1-3.38-2.23-6.5-1.41-10l.21-.88a14.69 14.69 0 0 1 .92-2.61 12.15 12.15 0 0 1 1.37-2.19 33.65 33.65 0 0 1 3.44-3.8 25.72 25.72 0 0 0 3.25-4 10.2 10.2 0 0 0-.03-10.59zm-13.74 23.58c-.19.94-.6 2.24-1 3.81a76.29 76.29 0 0 1-10.34 21.53c-1.86 2.69-3.26 4.37-3.26 4.37l-.93 1.18-2.6 3a78.5 78.5 0 0 1-18.73 14.91l-3.48 1.88-1.35.65s-2 1-5 2.21a76.28 76.28 0 0 1-23.26 5.26c-1.63.08-3 .2-4 .17h-3c-.95 0-2.32-.07-3.95-.18a80.59 80.59 0 0 1-11.86-1.76 73.51 73.51 0 0 1-11.44-3.55c-1.53-.57-2.76-1.16-3.63-1.55l-1.37-.61-1.33-.68c-.85-.44-2.08-1-3.48-1.87a73 73 0 0 1-9.91-6.72 74.52 74.52 0 0 1-8.76-8.18c-1.14-1.17-2-2.26-2.6-3l-1-1.15-.9-1.2c-.56-.77-1.44-1.82-2.33-3.2a74.52 74.52 0 0 1-6-10.35 73 73 0 0 1-4.36-11.15c-.51-1.55-.81-2.88-1.05-3.81l-.28-1.44-.3-1.47c-.19-.93-.49-2.27-.7-3.89a73.51 73.51 0 0 1-.92-12 80.59 80.59 0 0 1 .91-12c.26-1.62.54-3 .7-3.89a14.8 14.8 0 0 1 .33-1.46l.34-1.46c.19-.94.6-2.24 1-3.81a76.28 76.28 0 0 1 10.34-21.46c1.89-2.63 3.3-4.33 3.3-4.33l.93-1.17 2.6-3a78.5 78.5 0 0 1 18.67-14.83l3.48-1.88 1.35-.65s1.95-1 5-2.21a76.28 76.28 0 0 1 23.28-5.31c1.63-.08 3-.2 3.95-.17h3c1 0 2.32.07 4 .18A80.58 80.58 0 0 1 140 12.97a73.52 73.52 0 0 1 11.44 3.55c1.53.57 2.76 1.16 3.63 1.55l1.37.61 1.33.68c.85.44 2.08 1 3.48 1.87a73 73 0 0 1 9.91 6.72 74.52 74.52 0 0 1 8.76 8.17c1.14 1.17 2 2.26 2.6 3l1 1.15.9 1.2c.56.77 1.44 1.82 2.33 3.2a74.52 74.52 0 0 1 6 10.35 73 73 0 0 1 4.36 11.15c.51 1.55.81 2.88 1 3.81l.37 1.45.3 1.47c.19.94.49 2.27.7 3.89a73.52 73.52 0 0 1 .92 12 80.59 80.59 0 0 1-.91 12c-.26 1.62-.54 3-.7 3.89a14.81 14.81 0 0 1-.33 1.46z" fill="#7f121f"/><text transform="rotate(43.1 -132.607 159.285)" font-size="19.6" font-family="Myriad Pro" font-weight="700" style="isolation:isolate">G</text><text transform="rotate(30.03 -225.153 227.52)" font-size="19.6" font-family="Myriad Pro" font-weight="700" style="isolation:isolate">U</text><text transform="rotate(18.2 -423.445 378.04)" font-size="19.6" font-family="Myriad Pro" font-weight="700" style="isolation:isolate">A</text><text transform="matrix(1 .12 -.12 1 109.51 154.33)" font-size="19.6" font-family="Myriad Pro" font-weight="700" style="isolation:isolate">R</text><text transform="rotate(-4.9 1880.394 -1350.994)" font-size="19.67" font-family="Myriad Pro" font-weight="700" style="isolation:isolate">A</text><text transform="matrix(.95 -.3 .3 .95 136.45 154.25)" font-size="19.6" font-family="Myriad Pro" font-weight="700" style="isolation:isolate">N</text><text transform="rotate(-28.96 364.585 -216.98)" font-size="19.6" font-family="Myriad Pro" font-weight="700" style="isolation:isolate">T</text><text transform="matrix(.78 -.63 .63 .78 160.8 143.58)" font-size="19.6" font-family="Myriad Pro" font-weight="700" style="isolation:isolate">E</text><text transform="rotate(-49.01 234.19 -118.095)" font-size="19.6" font-family="Myriad Pro" font-weight="700" style="isolation:isolate">E</text><text transform="rotate(-46.24 105.826 -65.224)" font-size="19.6" font-family="Myriad Pro" font-weight="700" style="isolation:isolate">G</text><text transform="rotate(-33.92 122.002 -120.525)" font-size="19.57" font-family="Myriad Pro" font-weight="700" style="isolation:isolate">U</text><text transform="rotate(-21.8 155.692 -232.67)" font-size="19.6" font-family="Myriad Pro" font-weight="700" style="isolation:isolate">A</text><text transform="matrix(1 -.17 .17 1 108.23 37)" font-size="19.61" font-family="Myriad Pro" font-weight="700" style="isolation:isolate">R</text><text transform="translate(118.2 35.14)" font-size="19.6" font-family="Myriad Pro" font-weight="700" style="isolation:isolate">A</text><text transform="rotate(14.16 -77.433 539.355)" font-size="19.6" font-family="Myriad Pro" font-weight="700" style="isolation:isolate">N</text><text transform="matrix(.9 .43 -.43 .9 141.55 38.46)" font-size="19.6" font-family="Myriad Pro" font-weight="700" style="isolation:isolate">T</text><text transform="rotate(35.9 8.91 251.402)" font-size="19.6" font-family="Myriad Pro" font-weight="700" style="isolation:isolate">E</text><text transform="rotate(45.58 21.733 211.513)" font-size="19.6" font-family="Myriad Pro" font-weight="700" style="isolation:isolate">E</text><path d="M204.36 109.66c-.16 2 .46 4 1.22 6.37l.29.92c.3 1 .54 1.84.73 2.71l11-10h-13.24z"/><path d="M204.36 109.66c-.16 2 .46 4 1.22 6.37l.29.92c.3 1 .54 1.84.73 2.71l11-10h-13.24z" fill="#7f121f"/><path d="M122.65 17.02a71.77 71.77 0 0 1 67.9 48.78h2.07a73.61 73.61 0 0 0-139.94 0h2.07a71.77 71.77 0 0 1 67.9-48.78zM122.65 160.38a71.77 71.77 0 0 1-67.9-48.78h-2.07a73.61 73.61 0 0 0 139.94 0h-2.07a71.77 71.77 0 0 1-67.9 48.78z" fill="#ed1c24"/><path d="M122.65 132.4a43.69 43.69 0 0 1-37.19-20.8h-2.28a45.6 45.6 0 0 0 78.95 0h-2.25a43.69 43.69 0 0 1-37.23 20.8zM122.65 45.02a43.69 43.69 0 0 1 37.23 20.8h2.28a45.6 45.6 0 0 0-78.95 0h2.28a43.69 43.69 0 0 1 37.16-20.8z" fill="#ed1c24"/><path d="M39.53 115.42a18.12 18.12 0 0 0 1.26-5.76H27.66l10.62 10a34.26 34.26 0 0 1 .95-3.33z"/><path d="M39.53 115.42a18.12 18.12 0 0 0 1.26-5.76H27.66l10.62 10a34.26 34.26 0 0 1 .95-3.33zM122.88 11.93a77 77 0 1 1-77 77 77 77 0 0 1 77-77m0-1a78 78 0 1 0 78 78 78 78 0 0 0-78-78z" fill="#7f121f"/><path fill="#ed1c24" d="M27.66 67.76h189.99v41.9H27.66z"/><text transform="translate(54.01 99.63)" font-size="30.8" fill="#fff" font-family="Myriad Pro" font-weight="700" style="isolation:isolate">TIKKURI<tspan x="106.32" y="0">L</tspan><tspan x="121.63" y="0">A</tspan></text></symbol>
	<symbol viewBox="0 0 94.79 99.67" id="Tikkurila-star"><defs><linearGradient id="aca" x1="47.39" y1="692.42" x2="47.4" y2="788.93" gradientTransform="translate(0 -690)" gradientUnits="userSpaceOnUse"><stop offset="0" stop-color="#ed1c24"/><stop offset="1" stop-color="#d5121f"/></linearGradient><linearGradient id="acb" x1="47.4" y1="774.42" x2="47.4" y2="704.92" xlink:href="#aca"/></defs><title>Tikkurila-star</title><path d="M94.79 34.44l-5.86 15.4 5.86 15.39-13.8 9-4.3 15.9-16.46-.82L47.4 99.67 34.57 89.33l-16.47.82-4.3-15.9L0 65.24l5.87-15.4L0 34.44l13.8-9 4.3-15.92 16.47.82L47.4 0l12.83 10.34 16.46-.82L81 25.43z" fill="url(#aca)"/><circle cx="47.4" cy="49.84" r="36.15" fill="url(#acb)"/><path fill="#fff" d="M72.8 28.46c.58.58 1.79 2.07.86 3.39l-28.84 41.6c-2 2.78-4.06 3.19-5.92.58S24.47 53.31 24.47 53.31a2.43 2.43 0 0 1 .53-3.65c.81-.57 2.09-1.64 4.1-.08L41 59.24l28.1-30.47a2.75 2.75 0 0 1 3.7-.31z"/></symbol>
	<symbol viewBox="0 0 9.96 5.98" id="icon-arrow"><title>icon-arrow</title><path d="M8.73.2a.72.72 0 0 1 1 0 .81.81 0 0 1 0 1.12L5.54 5.76a.75.75 0 0 1-1.06 0L.22 1.32A.81.81 0 0 1 .22.2a.72.72 0 0 1 1 0l3.77 3.64z" fill="#464646"/></symbol>
	<symbol viewBox="0 0 28 39" id="icon-certificate"><title>icon-certificate</title><path data-name="icon certificate" d="M24.29 0H3.71A3.69 3.69 0 0 0 0 3.63v23.74A3.68 3.68 0 0 0 3.71 31h20.58A3.68 3.68 0 0 0 28 27.37V3.63A3.69 3.69 0 0 0 24.29 0zM25 28H3V3h22v25zm-3.1-4h-8a.9.9 0 0 0-.9 1v14l5.07-3.8L23 39V25a1.07 1.07 0 0 0-1.1-1zM6 8h7v2H6V8zm0 5h14v2H6v-2zm0 4h14v2H6v-2zm0 4h4v2H6v-2z" fill="#464646"/></symbol>
	<symbol viewBox="0 0 24 24" id="icon-check"><title>icon-check</title><path data-name="check copy" d="M12 0a12 12 0 1 0 12 12A12 12 0 0 0 12 0zm0 21.39A9.39 9.39 0 1 1 21.39 12 9.39 9.39 0 0 1 12 21.39zm4.81-14.2a.62.62 0 0 0-.87-.06l-.06.06-5.64 6.23-1.93-1.75a.76.76 0 0 0-1-.05.93.93 0 0 0-.22 1.22l2.2 3.58a1.35 1.35 0 0 0 .29.34 1.15 1.15 0 0 0 1.62-.18l.08-.12.05-.07 5.5-8.27a.76.76 0 0 0-.07-.93z" fill="#464646"/></symbol>
	<symbol viewBox="0 0 84 84" id="icon-cross"><title>icon-cross</title><path d="M42 0a42 42 0 1 0 42 42A42 42 0 0 0 42 0zm8.64 42l15.3 15.3-8.64 8.64L42 50.64l-15.3 15.3-8.64-8.64L33.36 42l-15.3-15.3 8.64-8.65L42 33.35l15.3-15.3 8.64 8.64z"/></symbol>
	<symbol viewBox="0 0 22 16.04" id="icon-crown"><title>icon-crown</title><path d="M2 8.01a3.32 3.32 0 0 0 1.89 3.2 5.19 5.19 0 0 0 4.76-.2 3.29 3.29 0 0 0 1.7-3.39A2.36 2.36 0 0 1 8 7.67 2.21 2.21 0 0 1 6.9 6.3c-.4-1.37.34-2.48 2-3-.34-1.4-.09-2.29.81-2.9a2.31 2.31 0 0 1 2.61 0c.89.63 1.13 1.52.77 2.9 1.69.53 2.44 1.66 2 3s-1.7 1.9-3.44 1.33a3.24 3.24 0 0 0 1.58 3.31 5.19 5.19 0 0 0 4.94.27A3.31 3.31 0 0 0 20 8.01a2.28 2.28 0 0 1-2.81-1.57V6.3c-.28-1.41.55-2.42 2.35-2.81a2.09 2.09 0 0 1 .71-2.38 1.82 1.82 0 0 1 1.75-.1c-.2 1-.41 2-.61 3.09l-2.12 10.91a1.07 1.07 0 0 1-1.12 1H3.91a1.07 1.07 0 0 1-1.17-1Q1.42 8.24.09 1.47A2.79 2.79 0 0 1 0 .94a1.73 1.73 0 0 1 1.77.18 2.11 2.11 0 0 1 .71 2.42A2.28 2.28 0 1 1 2 8.01z" fill="#464646"/></symbol>
	<symbol viewBox="0 0 14 16.03" id="icon-download"><title>icon-download</title><path data-name="In copy 2" d="M13 16.04H1a1 1 0 0 1-1-1V4.53a1 1 0 0 1 1-1h2.89A.757.757 0 1 1 4 5.04H1.56v9.5h10.88v-9.5h-2.33A.757.757 0 0 1 10 3.53h3a1 1 0 0 1 1 1v10.51a1 1 0 0 1-1 1zm-2.63-7.76a.74.74 0 0 1-.23.53l-2.59 2.5a.8.8 0 0 1-1.1 0l-2.59-2.5a.73.73 0 0 1-.23-.53.76.76 0 0 1 .77-.75.79.79 0 0 1 .6.22l1.22 1.22V.78a.78.78 0 0 1 1.56 0v8.19L9 7.75a.79.79 0 0 1 .59-.22.76.76 0 0 1 .78.74z" fill="#fff"/></symbol>
	<symbol viewBox="0 0 99.99 99.99" id="icon-edit"><title>icon-edit</title><path d="M97.25 2.74a9.38 9.38 0 0 1 0 13.26l-4.42 4.42L79.57 7.15 84 2.74a9.38 9.38 0 0 1 13.25 0zM31 55.77l-4.45 17.68 17.67-4.46 44.2-44.16-13.27-13.26zm44-8.68v40.4H12.5v-62.5h40.4l12.5-12.5H0v87.5h87.5v-65.4z"/></symbol>
	<symbol viewBox="0 0 128 76" id="icon-eye"><title>icon-eye</title><path d="M64.5 0C24 0 0 38 0 38s24 38 64.5 38C104 76 128 38 128 38S104 0 64.5 0zM64 14a23.94 23.94 0 1 1-.12 0H64zm0 12a12 12 0 1 0 12 12 11.31 11.31 0 0 0-1.19-5.19A3.65 3.65 0 0 1 72 34a4 4 0 0 1-4-4 3.65 3.65 0 0 1 1.19-2.81A11.3 11.3 0 0 0 64 26z"/></symbol>
	<symbol viewBox="0 0 17 16" id="icon-face"><title>icon-face</title><path data-name="painter copy" d="M13.31 12c-2.23-.8-2.94-1.47-2.94-2.92 0-.87.68-.58 1-2.17.12-.66.72 0 .84-1.51a.76.76 0 0 0-.33-.75s.12-.92.21-1.65-.5-3-3.59-3-3.68 2.19-3.59 3 .23 1.61.23 1.61a.76.76 0 0 0-.33.75c.11 1.5.72.86.84 1.51.3 1.59 1 1.3 1 2.17 0 1.44-.71 2.12-2.94 2.92S0 13.57 0 14.13V16h17v-1.87c0-.56-1.45-1.37-3.69-2.17z" fill="#c7c7c7"/></symbol>
	<symbol viewBox="0 0 17.97 16.04" id="icon-home"><title>icon-home</title><path data-name="icon home" d="M17.74 8.23l-8-7.91a1 1 0 0 0-1.41 0l-8 7.91c-.54.43-.36.78.21.78h1.67v6.2c0 .44 0 .8.82.8h3.94V9.82h4v6.19h4.13c.61 0 .63-.36.63-.8v-6.2h1.67c.57 0 .75-.35.34-.78z" fill="#fff"/></symbol>
	<symbol viewBox="0 0 14 16.05" id="icon-house"><title>icon-house</title><path data-name="projects copy" d="M14 5.87v9.62a.54.54 0 0 1-.14.39.49.49 0 0 1-.37.15h-4a.49.49 0 0 1-.37-.15.54.54 0 0 1-.12-.39V9H5v6.48a.54.54 0 0 1-.14.39.49.49 0 0 1-.37.15h-4a.46.46 0 0 1-.34-.12.54.54 0 0 1-.15-.41V5.87a.53.53 0 0 1 .17-.42L6.55.12a.48.48 0 0 1 .63 0l6.62 5.33a.49.49 0 0 1 .2.42z" fill="#c7c7c7"/></symbol>
	<symbol viewBox="0 0 116 90" id="icon-image"><title>icon-image</title><circle cx="100.88" cy="19.09" r="8.6"/><path d="M0 0v90h116V0H0zm83.07 32.08l-26.36 24.3-13.44-12.57L4 56.54V4h108v51.9z"/></symbol><symbol viewBox="0 0 88.43 96.39" id="icon-indoor"><title>icon-indoor</title><path d="M88.43 23.58v56.54c0 10.69-18.73 16.27-37.24 16.27s-37.24-5.58-37.24-16.27v-7.23a27.91 27.91 0 0 0 5.51.54c.55 0 1.11 0 1.65-.05v6.74c0 3.07 10.62 9.07 30.11 9.07s30.08-6 30.08-9.11V27.83a29.5 29.5 0 0 0 7.13-4.25zm-74.48 1.41v38.82c.23.15.48.3.74.44a7.27 7.27 0 0 0 1 .47h.1a10.14 10.14 0 0 0 3.73.65h1.56V27.83c-.78-.34-1.53-.7-2.25-1.06a27.48 27.48 0 0 1-4.33-2.72l-.58-.47m7 47c19.88-1.25 42.4-26.49 51.49-37.73q-2.29.54-4.73 1c-8.46 10.1-29 32.28-46.39 33.66-.6.05-1.19.08-1.77.08a17.13 17.13 0 0 1-6.3-1.14 14.21 14.21 0 0 1-2-.9 14.56 14.56 0 0 1-7.6-9.67C1 45.1 8.22 30.7 11.89 24.49a18.08 18.08 0 0 1-2.18-2.36C6.28 27.89-2.42 44.19.65 56.6a17.71 17.71 0 0 0 9.16 11.65 19.74 19.74 0 0 0 4.65 1.8 20.35 20.35 0 0 0 5 .6c.52 0 1 0 1.52-.06h-.06zm67.45-56.59c0 2.7-2 5.23-5.54 7.36-6.56 4.01-18.27 6.64-31.64 6.64s-25.07-2.66-31.62-6.66C16 19.19 14 16.7 14 13.99c0-7.73 16.66-14 37.19-14s37.18 6.27 37.18 14zm-5.11 0c0-2.28-11-8.9-32.06-8.9s-32.06 6.63-32.06 8.9c0 .92 1.78 2.54 5.28 4.15 5.19-2.39 14.2-4.76 26.8-4.76S72.78 15.76 78 18.19c3.5-1.65 5.25-3.27 5.25-4.19zM40.53 32.56a75.86 75.86 0 0 1-15.23-3.14A24.76 24.76 0 0 1 28 39.3c.12 5.36-5.31 16.36 1 16.36 4.54 0 0-10.62.69-16a25.56 25.56 0 0 1 1.64-5.67c1.38 0 3.15.23 3.6 1.88.77 2.81 1.53 6.65 3.71 4.21 1.79-2.09 1.9-6.23 1.89-7.52z"/></symbol>
	<symbol viewBox="0 0 24 22.99" id="icon-loading"><title>icon-loading</title><path d="M22.4 12.23a.88.88 0 0 0-1 .74A9.49 9.49 0 0 1 3.5 16l1.64-.36-3.54-3.92-1.6 5 1.74-.38a11.25 11.25 0 0 0 21.42-3.14.88.88 0 0 0-.74-1M1.59 11h.1a.88.88 0 0 0 .87-.79A9.5 9.5 0 0 1 20.5 7l-1.64.36 3.54 3.91 1.6-5-1.74.38a11.25 11.25 0 0 0-21.45 3.4.88.88 0 0 0 .75 1" fill="#464646"/></symbol>
	<symbol viewBox="0 0 18 11" id="icon-mail"><title>icon-mail</title><path d="M.6 1l7.5 3.85a2.26 2.26 0 0 0 1.81 0L17.41 1c.49-.25 1-1 0-1H.55C-.36 0 .11.78.6 1zm17 1.9L9.91 6.75a2.26 2.26 0 0 1-1.81 0L.39 2.93c-.38-.2-.38.07-.38.2v7a1.14 1.14 0 0 0 1 .87h16a1.14 1.14 0 0 0 1-.91v-7c0-.17 0-.4-.39-.2z" fill="#3a3f6d"/></symbol>
	<symbol viewBox="0 0 10 16" id="icon-mark"><title>icon-mark</title><path d="M5 0a5 5 0 0 0-5 5c0 4.77 5 11 5 11s5-6.23 5-11a5 5 0 0 0-5-5zm0 7.76a2.7 2.7 0 1 1 2.7-2.7A2.7 2.7 0 0 1 5 7.76z" fill="#3a3f6d"/></symbol>
	<symbol viewBox="0 0 40.7 33.2" id="icon-mobile-menu"><path d="M0 0h40.7v7.7H0zm0 25.5h40.7v7.7H0zm0-12.7h40.7v7.7H0z"/></symbol>
	<symbol viewBox="0 0 93.33 75" id="icon-outdoor"><title>icon-outdoor</title><path d="M4.66 51h-3v3h3v12h-3v3h3v6h9V39l-9 6v6zM19.66 51h-3v3h3v12h-3v3h3v6h9V39l-9 6v6zM34.66 51h-3v3h3v12h-3v3h3v6h9V39l-9 6v6zM49.66 51h-3v3h3v12h-3v3h3v6h9V39l-9 6v6zM64.66 51h-3v3h3v12h-3v3h3v6h9V39l-9 6v6zM79.66 45v6h-3v3h3v12h-3v3h3v6h9V39l-9 6zM90 35.5L78.75 28a3 3 0 0 1-1.34-2.5V6h-9.74v9A3 3 0 0 1 63 17.5L46.67 6.61 3.33 35.5 0 30.5l45-30a3 3 0 0 1 3.33 0l13.34 8.9V3a3 3 0 0 1 3-3h15.75a3 3 0 0 1 3 3v20.9l9.91 6.61z"/></symbol><symbol viewBox="0 0 28.02 28.02" id="icon-pencil"><title>icon-pencil</title><path data-name="icon pencil" d="M25.78 2.24C23.19-.35 21.24.02 21.24.02l-9.06 9.09L1.81 19.47 0 28.02l8.55-1.81 10.36-10.37L28 6.78s.37-1.95-2.22-4.54zM8 25.18l-2.91.63a6.61 6.61 0 0 0-1.24-1.68 6.88 6.88 0 0 0-1.67-1.24l.66-2.87.84-.84a6.69 6.69 0 0 1 5.2 5.2z" fill="#464646"/></symbol>
	<symbol viewBox="0 0 10.02 14" id="icon-phone"><title>icon-phone</title><path d="M3.89 6.32c.86-1.49 1.92-3 2.6-2.58 1 .56 1.63 1.1 3-.71S9.24.66 8.29.11s-4.08 1-6.39 5.05-2.27 7.43-1.18 8.06 2.2 1.6 3.11-.46.16-2.35-.84-2.91c-.71-.39 0-2.05.9-3.53z" fill="#3a3f6d"/></symbol>
	<symbol viewBox="0 0 16.11 14" id="icon-quote"><title>icon-quote</title><path d="M3.18 0a3.18 3.18 0 0 0 0 6.36c3.07 0 1 6.15-3.07 6.15V14c7.3 0 10.17-14 3.07-14zm8.84 0a3.18 3.18 0 1 0 0 6.36c3.07 0 1 6.15-3.07 6.15V14c7.31 0 10.16-14 3.07-14z" fill="#c7c7c7"/></symbol>
	<symbol viewBox="0 0 16 16" id="icon-remove"><title>icon-remove</title><path data-name="remove copy" d="M8 0a8 8 0 1 0 8 8 8 8 0 0 0-8-8zm4.81 7v2H3.19V7h9.62z" fill="#e2e2e1"/></symbol>
	<symbol viewBox="0 0 20.01 19.01" id="icon-roller"><title>icon-roller</title><path data-name="icon copy 2" d="M15.73 5.99H1.37A1.16 1.16 0 0 1 .02 4.73V1.3A1.14 1.14 0 0 1 1.3-.01h14.48a1.13 1.13 0 0 1 1.24 1.31v3.43a1.16 1.16 0 0 1-1 1.26h-.29zM9.35 12.3l.67.11v5.32a1.6 1.6 0 0 1-1.68 1.26 1.83 1.83 0 0 1-1.64-1.3v-5.27l.65-.13a4.61 4.61 0 0 1 .1-.72 2.08 2.08 0 0 1 2-1.82 51.29 51.29 0 0 0 5.51-1.3 5.3 5.3 0 0 0 4.06-4.46c.13-.5-.6-.43-.67-.62V2.33c.32-.12 1.47-.13 1.62.52a6 6 0 0 1-1.68 5c-1.54 1.45-4.61 2.2-8.39 3.08-1 .21-.51.22-.52 1.38z" fill="#464646"/></symbol>
	<symbol viewBox="0 0 39.64 42.93" id="icon-roller-1"><title>icon-roller-1</title><path d="M35.65 1.6a1.6 1.6 0 0 0-1.6-1.6H1.6a1.59 1.59 0 0 0-.9.27A1.64 1.64 0 0 0 .27.7a1.6 1.6 0 0 0-.27.9V9a1.6 1.6 0 0 0 .27.89 1.64 1.64 0 0 0 .43.43 1.59 1.59 0 0 0 .9.27H34A1.6 1.6 0 0 0 35.65 9V6.48h1.59v5.31l-19.11 3.49a1.2 1.2 0 0 0-1 1.18v5.14h-1.22a1.6 1.6 0 0 0-1.6 1.6v18.13a1.6 1.6 0 0 0 1.6 1.6h4.84a1.6 1.6 0 0 0 1.6-1.6V23.2a1.6 1.6 0 0 0-1.6-1.6h-1.22v-4.14L38.64 14a1.2 1.2 0 0 0 1-1.18V5.27a1.2 1.2 0 0 0-1.2-1.2h-2.79V1.6zM21.09 5.12a1.2 1.2 0 1 1-1.2 1.2 1.2 1.2 0 0 1 1.2-1.2zm12.4-3.63a1.22 1.22 0 0 1-1.07.83 8.84 8.84 0 0 0-1.4.25 27.64 27.64 0 0 0-.46 3.35c0 1.12-1.73 1.74-2.24.61-1.17-2.61-2.2-3.19-4.92-3.16a12.45 12.45 0 0 1-4.7-.84 12.92 12.92 0 0 1-2.07.14c-.48 1.64.27 3-.39 4.65a1.21 1.21 0 0 1-2.24.29 33.11 33.11 0 0 1-1.1-3.22 1.11 1.11 0 0 1-1.14 1 1.19 1.19 0 0 1-1.07-1.69 7.94 7.94 0 0 0-.79.16A7.35 7.35 0 0 1 6 3.54v2.24a1.2 1.2 0 0 1-2.4 0V3.19a4.64 4.64 0 0 0-2.2.7.93.93 0 0 1-.23.1V1.6a.4.4 0 0 1 .4-.4H34a.4.4 0 0 1 .39.34h-1z"/></symbol>
	<symbol viewBox="0 0 31.98 31.98" id="icon-search"><title>icon-search</title><path data-name="icon search" d="M31.27 27.01l-7.65-7.6a12.44 12.44 0 0 0 1.82-6.5A13.19 13.19 0 0 0 12.52.01 12.52 12.52 0 0 0 0 12.52a13.2 13.2 0 0 0 12.91 12.92 12.49 12.49 0 0 0 6.31-1.71l7.69 7.69a1.91 1.91 0 0 0 2.7 0l1.91-1.9c.78-.76.48-1.7-.25-2.51zM3.85 12.53a8.67 8.67 0 0 1 8.67-8.67 9.34 9.34 0 0 1 9.06 9.05 8.67 8.67 0 0 1-8.67 8.67 9.34 9.34 0 0 1-9.06-9.05z" fill="#464646"/></symbol>
	<symbol viewBox="0 0 33 35" id="icon-star"><title>icon-star</title><path d="M33 12.09l-4.8-3.16-1.5-5.59-5.7.29L16.5 0 12 3.63l-5.7-.29-1.5 5.59L0 12.09l2 5.41-2 5.41 4.8 3.16 1.5 5.58 5.7-.28L16.5 35l4.5-3.63 5.73.29 1.5-5.58L33 22.9l-2-5.4zm-7.36-.91l-10 14.61c-.68 1-1.41 1.12-2.06.2s-5-7.28-5-7.28a.86.86 0 0 1 .1-1.21l.1-.07a1 1 0 0 1 1.43 0l4.14 3.39 9.78-10.7a1 1 0 0 1 1.21-.12 1 1 0 0 1 .3 1.2z"/></symbol>
	<symbol viewBox="0 0 24 24" id="icon-time"><title>icon-time</title><path data-name="pending copy" d="M12 0a12 12 0 1 0 12 12A12 12 0 0 0 12 0zm0 21.39A9.39 9.39 0 1 1 21.39 12 9.39 9.39 0 0 1 12 21.39zm.91-16.17h-1.82v7.16l4.44 4.44 1.29-1.29-3.91-3.91v-6.4z" fill="#fff"/></symbol>
	<symbol viewBox="0 0 72 72" id="icon-upload"><title>icon-upload</title><path d="M63 45v18H9V45H0v27h72V45h-9z"/><path d="M27 54h18V27h9L36 0 18 27h9v27z"/></symbol>
	<symbol viewBox="0 0 16 16" id="icon-web"><title>icon-web</title><path d="M8 0a8 8 0 1 0 8 8 8 8 0 0 0-8-8zm6.82 8a6.79 6.79 0 0 1-1.41 4.15 1.09 1.09 0 0 1-.27-1.27 6.06 6.06 0 0 0 .26-2.32c-.06-.5-.31-1.69-1-1.7a1.62 1.62 0 0 1-1.6-1.07c-.86-1.72 1.62-2 .75-3-.24-.27-1.49 1.1-1.67-.72a1 1 0 0 1 .28-.53A6.83 6.83 0 0 1 14.82 8zM7.06 1.24a3.29 3.29 0 0 1-.86.69 4.62 4.62 0 0 0-1.12.94c-.31.5-1.3 1.21-1.3 1.57a.8.8 0 0 0 .75.7 2.68 2.68 0 0 1 1.31.06c.39.14 3.26.28 2.35 2.7-.29.77-1.56.64-1.9 1.92A10.71 10.71 0 0 0 6 11.07c0 .4.34 1.93 0 1.93a3.51 3.51 0 0 1-1.45-1.61 15.7 15.7 0 0 1-.27-1.86C4.23 8.78 3 8.79 3 7.81s.65-1.34.5-1.81-1.36-.39-1.86-.45a6.84 6.84 0 0 1 5.42-4.31zM5.85 14.48a2.09 2.09 0 0 1 .83-.48 7.61 7.61 0 0 0 1.25-.27 11.46 11.46 0 0 1 1.86-.58c.56 0 1.68 0 2 .58a6.8 6.8 0 0 1-5.94.75z" fill="#3a3f6d"/></symbol>
	</svg>